<svg xmlns="http://www.w3.org/2000/svg" version="1.1" xmlns:xlink="http://www.w3.org/1999/xlink" xmlns:svgjs="http://svgjs.dev/svgjs" width="1000" height="1000" viewBox="0 0 1000 1000"><rect width="1000" height="1000" fill="#fefee2"></rect><g transform="matrix(0.7,0,0,0.7,149.57578186783974,402.19444174487364)"><svg viewBox="0 0 396 111" data-background-color="#fefee2" preserveAspectRatio="xMidYMid meet" height="280" width="1000" xmlns="http://www.w3.org/2000/svg" xmlns:xlink="http://www.w3.org/1999/xlink"><g id="tight-bounds" transform="matrix(1,0,0,1,0.2399872887976926,-0.11011751878049836)"><svg viewBox="0 0 395.52 111.220235037561" height="111.220235037561" width="395.52"><g><svg viewBox="0 0 536.3160831945058 150.81209756097556" height="111.220235037561" width="395.52"><g><rect width="6.239114378274057" height="150.81209756097556" x="118.2242086636819" y="0" fill="#7fc37e" opacity="1" stroke-width="0" stroke="transparent" fill-opacity="1" class="rect-o-0" data-fill-palette-color="primary" rx="1%" id="o-0" data-palette-color="#7fc37e"></rect></g><g transform="matrix(1,0,0,1,140.79608319450585,0.37515447154470394)"><svg viewBox="0 0 395.52 150.06178861788615" height="150.06178861788615" width="395.52"><g id="textblocktransform"><svg viewBox="0 0 395.52 150.06178861788615" height="150.06178861788615" width="395.52" id="textblock"><g><svg viewBox="0 0 395.52 150.06178861788615" height="150.06178861788615" width="395.52"><g transform="matrix(1,0,0,1,0,0)"><svg width="395.52" viewBox="3.0999999046325684 -34.900001525878906 202.94998168945312 74.00000762939453" height="150.06178861788615" data-palette-color="#7fc37e"><svg></svg><svg></svg><g class="undefined-text-0" data-fill-palette-color="primary" id="text-0"><path xmlns="http://www.w3.org/2000/svg" d="M3.1 0v-34.3h6.7l6.05 22.5c0.4 1.6 0.783 4.167 1.15 7.7v0h0.2c0.333-3.6 0.7-6.167 1.1-7.7v0l6.1-22.5h6.65v34.3h-4.4v-24.9c0-0.767 0.117-2.533 0.35-5.3v0h-0.2c-0.533 2.767-0.917 4.533-1.15 5.3v0l-6.85 24.9h-3.95l-6.85-24.9c-0.167-0.6-0.517-2.367-1.05-5.3v0h-0.2c0.2 2.9 0.3 4.667 0.3 5.3v0 24.9zM50.1 0.6c-4.267 0-7.583-1.5-9.95-4.5-2.367-3-3.55-7.417-3.55-13.25v0c0-5.833 1.183-10.25 3.55-13.25 2.367-3 5.683-4.5 9.95-4.5v0c4.267 0 7.583 1.5 9.95 4.5 2.367 3 3.55 7.417 3.55 13.25v0c0 5.833-1.183 10.25-3.55 13.25-2.367 3-5.683 4.5-9.95 4.5zM50.1-3.45c2.8 0 4.983-1.05 6.55-3.15 1.567-2.1 2.35-5.2 2.35-9.3v0-2.5c0-4.1-0.783-7.2-2.35-9.3-1.567-2.1-3.75-3.15-6.55-3.15v0c-2.8 0-4.983 1.05-6.55 3.15-1.567 2.1-2.35 5.2-2.35 9.3v0 2.5c0 4.1 0.783 7.2 2.35 9.3 1.567 2.1 3.75 3.15 6.55 3.15zM69.55 0v-34.3h3.8l12.75 21.55c0.467 0.833 1.167 2.367 2.1 4.6v0l0.15-0.05c-0.1-2.333-0.15-3.85-0.15-4.55v0-21.55h3.95v34.3h-3.65l-12.85-21.85c-0.533-0.933-1.267-2.467-2.2-4.6v0l-0.15 0.05c0.133 2.133 0.2 3.65 0.2 4.55v0 21.85zM99.15 0v-34.3h21.15v4h-16.75v10.75h14.55v4h-14.55v11.55h17.05v4zM134.5 0v-14.2l-11.1-20.1h4.85l8.7 15.9h0.2l8.55-15.9h4.25l-11.05 20.1v14.2z" fill="#7fc37e" fill-rule="nonzero" stroke="none" stroke-width="1" stroke-linecap="butt" stroke-linejoin="miter" stroke-miterlimit="10" stroke-dasharray="" stroke-dashoffset="0" font-family="none" font-weight="none" font-size="none" text-anchor="none" style="mix-blend-mode: normal" data-fill-palette-color="primary" opacity="1"></path><path xmlns="http://www.w3.org/2000/svg" d="M3.1 38.5v-34.3h6.7l6.05 22.5c0.4 1.6 0.783 4.167 1.15 7.7v0h0.2c0.333-3.6 0.7-6.167 1.1-7.7v0l6.1-22.5h6.65v34.3h-4.4v-24.9c0-0.767 0.117-2.533 0.35-5.3v0h-0.2c-0.533 2.767-0.917 4.533-1.15 5.3v0l-6.85 24.9h-3.95l-6.85-24.9c-0.167-0.6-0.517-2.367-1.05-5.3v0h-0.2c0.2 2.9 0.3 4.667 0.3 5.3v0 24.9zM34.1 38.5l10.9-34.3h5.65l10.9 34.3h-4.75l-2.35-7.65h-13.6l-2.35 7.65zM42.05 26.85h11.15l-4.65-15.25c-0.233-0.733-0.5-2-0.8-3.8v0h-0.2c-0.3 1.833-0.567 3.1-0.8 3.8v0zM65 38.5v-34.3h3.8l12.75 21.55c0.467 0.833 1.167 2.367 2.1 4.6v0l0.15-0.05c-0.1-2.333-0.15-3.85-0.15-4.55v0-21.55h3.95v34.3h-3.65l-12.85-21.85c-0.533-0.933-1.267-2.467-2.2-4.6v0l-0.15 0.05c0.133 2.133 0.2 3.65 0.2 4.55v0 21.85zM91.05 38.5l10.9-34.3h5.65l10.9 34.3h-4.75l-2.35-7.65h-13.6l-2.35 7.65zM99 26.85h11.15l-4.65-15.25c-0.233-0.733-0.5-2-0.8-3.8v0h-0.2c-0.3 1.833-0.567 3.1-0.8 3.8v0zM133.7 24.5v-3.85h13.4v17.85h-2.9l-0.95-3.8c-2 2.933-4.95 4.4-8.85 4.4v0c-4.367 0-7.71-1.483-10.03-4.45-2.313-2.967-3.47-7.4-3.47-13.3v0c0-5.833 1.2-10.25 3.6-13.25 2.4-3 5.783-4.5 10.15-4.5v0c3.733 0 6.74 1.05 9.02 3.15 2.287 2.1 3.43 5.15 3.43 9.15v0h-4.5c0-2.767-0.71-4.833-2.13-6.2-1.413-1.367-3.353-2.05-5.82-2.05v0c-2.9 0-5.15 1.05-6.75 3.15-1.6 2.1-2.4 5.2-2.4 9.3v0 2.5c0 4.133 0.757 7.24 2.27 9.32 1.52 2.087 3.73 3.13 6.63 3.13v0c2.833 0 4.91-0.8 6.23-2.4 1.313-1.6 1.97-4.05 1.97-7.35v0-0.8zM153.85 38.5v-34.3h21.15v4h-16.75v10.75h14.55v4h-14.55v11.55h17.05v4zM181.2 38.5v-34.3h13.8c3.3 0 5.833 0.857 7.6 2.57 1.767 1.72 2.65 4.03 2.65 6.93v0c0 2.133-0.533 3.983-1.6 5.55-1.067 1.567-2.567 2.667-4.5 3.3v0l6.9 15.95h-4.9l-6.35-15.15h-9.2v15.15zM185.6 19.35h9.25c1.733 0 3.133-0.517 4.2-1.55 1.067-1.033 1.6-2.4 1.6-4.1v0c0-1.733-0.5-3.083-1.5-4.05-1-0.967-2.433-1.45-4.3-1.45v0h-9.25z" fill="#7fc37e" fill-rule="nonzero" stroke="none" stroke-width="1" stroke-linecap="butt" stroke-linejoin="miter" stroke-miterlimit="10" stroke-dasharray="" stroke-dashoffset="0" font-family="none" font-weight="none" font-size="none" text-anchor="none" style="mix-blend-mode: normal" data-fill-palette-color="primary" opacity="1"></path></g></svg></g></svg></g></svg></g></svg></g><g transform="matrix(1,0,0,1,0,0.37515447154470394)"><svg viewBox="0 0 101.89144851113203 150.06178861788615" height="150.06178861788615" width="101.89144851113203"><g><svg xmlns="http://www.w3.org/2000/svg" xmlns:xlink="http://www.w3.org/1999/xlink" version="1.1" x="0" y="0" viewBox="16.224000930786133 0 67.8270034790039 99.89299011230469" enable-background="new 0 0 100 100" xml:space="preserve" height="150.06178861788615" width="101.89144851113203" class="icon-icon-0" data-fill-palette-color="accent" id="icon-0"><g fill="#7fc37e" data-fill-palette-color="accent"><path d="M55.076 41.137c-0.353-0.075-0.622-0.151-0.959-0.226V28.788c5.604 0.904 11.528 3.359 17.053 7.246l10.771-15.209c-7.531-6.043-16.577-9.502-27.824-10.184V0h-5.421v10.545c-17.882 0.476-28.812 10.728-28.812 24.818v0.226c0 15.819 12.516 20.545 28.812 24.305v12.77c-7.262-0.928-14.178-3.966-20.483-8.986L16.224 77.993c8.629 7.726 20.17 11.969 32.472 12.715v9.185h5.421v-9.074c18.032-0.483 29.934-9.811 29.934-25.254v-0.229C84.051 50.798 72.95 45.024 55.076 41.137zM41.645 33.594v-0.23c0-2.633 2.34-4.751 7.051-4.949v11.088C43.215 37.838 41.645 36.295 41.645 33.594zM62.294 67.666c0 3.189-2.875 5.132-8.177 5.299V61.289c6.389 1.856 8.177 3.53 8.177 6.155V67.666z" fill="#7fc37e" data-fill-palette-color="accent"></path></g></svg></g></svg></g></svg></g><defs></defs></svg><rect width="395.52" height="111.220235037561" fill="none" stroke="none" visibility="hidden"></rect></g></svg></g></svg>